<svg width="116" height="116" viewBox="0 0 116 116" fill="none" xmlns="http://www.w3.org/2000/svg">
    <rect width="116" height="116" fill="black"></rect>
    <path d="M50.5891 49.631C50.5891 42.0026 44.9953 37.4036 35.6123 37.4036H29.7436V71.2463H34.3426V62.5382H37.097L45.7601 71.2463H52.8936V70.7914L42.0609 61.5884C47.4748 59.6039 50.5891 55.3598 50.5891 49.626M37.052 58.704H34.3426V41.6877H35.6973C41.971 41.6877 45.6252 44.892 45.6252 50.3508C45.6252 55.4947 42.3309 58.704 37.052 58.704Z" fill="white"></path>
    <path d="M69.3201 54.7749H80.6027V66.7373C78.8431 67.2772 76.8085 67.5521 74.8739 67.5521C66.3457 67.5521 60.8869 62.3633 60.8869 54.285C60.8869 46.2067 66.3457 41.1578 75.0589 41.1578C77.0834 41.1578 79.028 41.4228 80.6527 41.8327V46.0268L84.8068 44.897L85.0317 38.6683C81.4175 37.3186 78.0832 36.6838 74.7839 36.6838C63.5963 36.6838 55.833 43.9022 55.833 54.33C55.833 64.7577 63.4114 71.9262 74.2041 71.9262C76.5935 71.9262 78.8531 71.5663 80.5627 70.8914V79.1946L85.1217 78.0649V54.7749H88.326L89.2308 50.6708H70.2299L69.3251 54.7749H69.3201Z" fill="white"></path>
</svg>