<svg class="m-navbar__item --press" width="61" height="61" viewBox="0 0 61 61" fill="none" xmlns="http://www.w3.org/2000/svg">
                 <style type="text/css">
	.st0{fill:none;stroke:#000000;stroke-width:2;stroke-miterlimit:10;}
</style>
<line class="st0" x1="5.9" y1="42.4" x2="54.9" y2="42.4"></line>
<g>
	<path d="M6.2,38.8V22.7h3.7c7-0.4,6.3,11.8-0.6,10.9v5.3H6.2z M9.4,25v6C12.4,31.2,12.4,24.9,9.4,25z" fill="black"></path>
	<path d="M16.7,38.8V22.7c2.1,0.1,6.3-0.4,7.8,1.1c2.1,1.8,1.7,6.7-1.3,7.5l2.9,7.5h-3.1l-2.7-7.6h-0.3v7.6H16.7z M19.8,29.5
		c3.7,0.7,3.8-5.2,0-4.5V29.5z" fill="black"></path>
	<path d="M28.2,38.8V22.7H35v2.5h-3.7v3.9H35v2.5h-3.7v4.7H35v2.6H28.2z" fill="black"></path>
	<path d="M36.5,35.1l2.8-0.8c0.1,3.5,4.6,2,2.7-0.8c-0.8-1.1-4-3.6-4.5-4.6c-3.8-6,6.7-9.9,7.9-3l-2.6,0.9c0.1-2.1-2.8-2.8-2.9-0.6
		c-0.1,1.8,4.3,4.2,4.9,5.8C48.5,38.5,37.4,42.6,36.5,35.1z" fill="black"></path>
	<path d="M46.2,35.1l2.8-0.8c0.1,3.5,4.6,2,2.7-0.8c-0.8-1.1-4-3.6-4.5-4.6c-3.8-6,6.7-9.9,7.9-3l-2.6,0.9c0.1-2.1-2.8-2.8-2.9-0.6
		c-0.1,1.8,4.3,4.2,4.9,5.8C58.2,38.5,47.1,42.6,46.2,35.1z" fill="black"></path>
</g>
<line class="st0" x1="6.2" y1="19" x2="55.3" y2="19"></line>
</svg>